<?xml version="1.0" encoding="utf-8"?>
<!-- Generator: Adobe Illustrator 16.0.4, SVG Export Plug-In . SVG Version: 6.00 Build 0)  -->
<!DOCTYPE svg PUBLIC "-//W3C//DTD SVG 1.1//EN" "http://www.w3.org/Graphics/SVG/1.1/DTD/svg11.dtd">
<svg version="1.1" id="Layer_1" xmlns="http://www.w3.org/2000/svg" xmlns:xlink="http://www.w3.org/1999/xlink" x="0px" y="0px"
	 width="35px" height="35px" viewBox="0 0 35 35" enable-background="new 0 0 35 35" xml:space="preserve">
<g>
	<path fill="#171717" d="M17.501,5.38c-4.023,0-4.527,0.018-6.107,0.089C9.818,5.542,8.741,5.792,7.8,6.159
		C6.825,6.536,6,7.042,5.176,7.865s-1.33,1.649-1.707,2.624c-0.367,0.941-0.617,2.019-0.689,3.594
		c-0.072,1.58-0.089,2.084-0.089,6.107c0,4.021,0.018,4.525,0.089,6.105c0.073,1.577,0.322,2.653,0.689,3.595
		c0.377,0.974,0.884,1.8,1.708,2.624c0.824,0.821,1.649,1.329,2.623,1.708c0.942,0.365,2.019,0.615,3.594,0.688
		c1.58,0.072,2.084,0.09,6.107,0.09c4.021,0,4.525-0.018,6.105-0.09c1.577-0.072,2.653-0.322,3.595-0.688
		c0.974-0.381,1.8-0.887,2.624-1.708c0.822-0.824,1.329-1.65,1.708-2.624c0.365-0.941,0.615-2.02,0.688-3.595
		c0.072-1.58,0.09-2.084,0.09-6.105c0-4.023-0.018-4.527-0.09-6.107c-0.072-1.576-0.322-2.653-0.688-3.594
		c-0.38-0.974-0.886-1.8-1.708-2.623c-0.824-0.823-1.65-1.331-2.624-1.708c-0.941-0.366-2.02-0.616-3.595-0.689
		C22.026,5.397,21.522,5.38,17.501,5.38L17.501,5.38L17.501,5.38z M17.501,8.048c3.955,0,4.422,0.015,5.984,0.086
		c1.443,0.066,2.228,0.307,2.75,0.51c0.691,0.269,1.186,0.589,1.702,1.107c0.518,0.519,0.84,1.012,1.109,1.703
		c0.202,0.522,0.443,1.305,0.51,2.75c0.071,1.561,0.087,2.029,0.087,5.985c0,3.954-0.016,4.422-0.087,5.984
		c-0.066,1.443-0.308,2.228-0.51,2.75c-0.27,0.691-0.592,1.186-1.109,1.702c-0.519,0.517-1.011,0.84-1.702,1.109
		c-0.522,0.202-1.307,0.443-2.75,0.51c-1.562,0.071-2.029,0.085-5.984,0.085c-3.956,0-4.424-0.014-5.985-0.085
		c-1.444-0.066-2.229-0.308-2.75-0.51c-0.691-0.27-1.185-0.592-1.703-1.109c-0.519-0.519-0.839-1.011-1.108-1.702
		c-0.203-0.522-0.444-1.307-0.511-2.75c-0.071-1.562-0.086-2.03-0.086-5.984c0-3.956,0.015-4.424,0.086-5.985
		c0.067-1.444,0.308-2.229,0.511-2.75c0.269-0.691,0.588-1.185,1.107-1.703s1.013-0.839,1.704-1.107
		c0.522-0.202,1.306-0.444,2.75-0.51C13.077,8.064,13.545,8.048,17.501,8.048"/>
	<path fill="#171717" d="M17.501,25.127c-2.727,0-4.937-2.21-4.937-4.937c0-2.728,2.21-4.937,4.937-4.937
		c2.726,0,4.937,2.21,4.937,4.937C22.438,22.916,20.227,25.127,17.501,25.127L17.501,25.127z M17.501,12.584
		c-4.201,0-7.606,3.405-7.606,7.606c0,4.199,3.405,7.605,7.606,7.605c4.199,0,7.605-3.406,7.605-7.605
		C25.106,15.99,21.7,12.584,17.501,12.584L17.501,12.584z"/>
	<path fill="#171717" d="M27.185,12.284c0,0.981-0.797,1.778-1.778,1.778c-0.98,0-1.775-0.796-1.775-1.778
		c0-0.982,0.795-1.777,1.775-1.777C26.388,10.507,27.185,11.302,27.185,12.284L27.185,12.284z"/>
</g>
</svg>
