<?xml version="1.0" encoding="utf-8"?>
<!-- Generator: Adobe Illustrator 16.0.4, SVG Export Plug-In . SVG Version: 6.00 Build 0)  -->
<!DOCTYPE svg PUBLIC "-//W3C//DTD SVG 1.1//EN" "http://www.w3.org/Graphics/SVG/1.1/DTD/svg11.dtd">
<svg version="1.1" id="Layer_1" xmlns="http://www.w3.org/2000/svg" xmlns:xlink="http://www.w3.org/1999/xlink" x="0px" y="0px"
	 width="35px" height="35px" viewBox="0 0 35 35" enable-background="new 0 0 35 35" xml:space="preserve">
<path fill="#171717" d="M34.4,10.782c-1.244,0.552-2.58,0.924-3.982,1.092c1.432-0.858,2.531-2.217,3.049-3.836
	c-1.34,0.795-2.824,1.372-4.404,1.683c-1.266-1.347-3.066-2.189-5.061-2.189c-3.832,0-6.936,3.105-6.936,6.934
	c0,0.543,0.061,1.073,0.179,1.581C11.482,15.756,6.372,12.996,2.952,8.8c-0.597,1.024-0.939,2.216-0.939,3.486
	c0,2.406,1.225,4.529,3.085,5.772c-1.137-0.036-2.206-0.348-3.141-0.868c0,0.029,0,0.058,0,0.087c0,3.361,2.39,6.163,5.563,6.8
	c-0.582,0.158-1.195,0.242-1.828,0.242c-0.446,0-0.881-0.042-1.304-0.124c0.882,2.756,3.444,4.761,6.478,4.816
	c-2.374,1.859-5.363,2.969-8.612,2.969c-0.56,0-1.112-0.034-1.654-0.096C3.668,33.852,7.313,35,11.229,35
	c12.755,0,19.732-10.567,19.732-19.73c0-0.301-0.008-0.6-0.021-0.897C32.295,13.394,33.471,12.173,34.4,10.782z"/>
</svg>
